<svg width="130" height="21" viewBox="0 0 130 21" fill="none" xmlns="http://www.w3.org/2000/svg">
<path d="M5.63775 10.1545C6.35868 10.1545 7.06341 9.94068 7.66284 9.54016C8.26227 9.13963 8.72947 8.57035 9.00535 7.9043C9.28124 7.23825 9.35343 6.50535 9.21278 5.79827C9.07213 5.0912 8.72498 4.44171 8.2152 3.93194C7.70543 3.42216 7.05594 3.07501 6.34887 2.93436C5.64179 2.79371 4.90889 2.8659 4.24284 3.14178C3.57679 3.41767 3.00751 3.88487 2.60698 4.4843C2.20646 5.08373 1.99268 5.78846 1.99268 6.50939C1.99238 6.98815 2.08646 7.46228 2.26953 7.90465C2.45261 8.34703 2.72109 8.74897 3.05963 9.08751C3.39816 9.42604 3.80011 9.69453 4.24249 9.8776C4.68486 10.0607 5.15899 10.1548 5.63775 10.1545Z" fill="white"/>
<path d="M14.5123 10.1545C15.2332 10.1545 15.9379 9.94068 16.5374 9.54016C17.1368 9.13963 17.604 8.57035 17.8799 7.9043C18.1558 7.23825 18.2279 6.50535 18.0873 5.79827C17.9466 5.0912 17.5995 4.44171 17.0897 3.93194C16.5799 3.42216 15.9305 3.07501 15.2234 2.93436C14.5163 2.79371 13.7834 2.8659 13.1174 3.14178C12.4513 3.41767 11.882 3.88487 11.4815 4.4843C11.081 5.08373 10.8672 5.78846 10.8672 6.50939C10.8669 6.98815 10.961 7.46228 11.144 7.90465C11.3271 8.34703 11.5956 8.74897 11.9341 9.08751C12.2727 9.42604 12.6746 9.69453 13.117 9.8776C13.5594 10.0607 14.0335 10.1548 14.5123 10.1545Z" fill="white"/>
<path d="M17.1841 18.4861C17.9051 18.4861 18.6098 18.2723 19.2092 17.8718C19.8087 17.4712 20.2759 16.902 20.5517 16.2359C20.8276 15.5699 20.8998 14.837 20.7592 14.1299C20.6185 13.4228 20.2714 12.7733 19.7616 12.2635C19.2518 11.7538 18.6023 11.4066 17.8953 11.266C17.1882 11.1253 16.4553 11.1975 15.7892 11.4734C15.1232 11.7493 14.5539 12.2165 14.1534 12.8159C13.7528 13.4153 13.5391 14.1201 13.5391 14.841C13.5388 15.3198 13.6328 15.7939 13.8159 16.2363C13.999 16.6786 14.2675 17.0806 14.606 17.4191C14.9446 17.7576 15.3465 18.0261 15.7889 18.2092C16.2312 18.3923 16.7054 18.4864 17.1841 18.4861Z" fill="#89BCA4"/>
<path d="M32.6249 16.813V18.4883C32.2006 18.5783 31.7681 18.6238 31.3344 18.6242C29.093 18.6242 28.1421 17.6733 28.1421 15.2508V8.3908H26.1045V6.77882H28.1421V2.77603H30.1797V6.77882H32.5117V8.40891H30.1797V15.0425C30.1797 16.3783 30.6099 16.9443 31.8098 16.9443C32.0846 16.9226 32.3572 16.8787 32.6249 16.813Z" fill="white"/>
<path d="M37.13 8.23232C37.5239 7.67843 38.0479 7.22979 38.6558 6.92582C39.2638 6.62185 39.9371 6.47186 40.6165 6.48902C43.3107 6.48902 44.8729 8.11912 44.8729 11.334V18.511H42.8353V11.4925C42.8353 9.04736 41.8165 8.1644 40.1185 8.1644C38.4204 8.1644 37.062 9.38697 37.062 11.7868V18.5336H35.0244V2.05154H37.062V8.25496H37.13V8.23232Z" fill="white"/>
<path d="M47.522 18.511V6.76071H49.5596V18.511H47.522Z" fill="white"/>
<path d="M58.5251 6.73807V8.57192C58.2761 8.54928 57.9591 8.504 57.7101 8.504C55.4913 8.504 54.2461 9.93033 54.2461 12.534V18.5336H52.2085V6.77882H54.1556V8.59004H54.2008C54.5494 7.98531 55.0559 7.48677 55.6661 7.14779C56.2763 6.8088 56.9672 6.64213 57.6648 6.66562C57.9536 6.64376 58.244 6.66821 58.5251 6.73807Z" fill="white"/>
<path d="M66.4945 16.813V18.4883C66.0702 18.5783 65.6377 18.6238 65.204 18.6242C62.9626 18.6242 62.0117 17.6733 62.0117 15.2508V8.3908H59.9741V6.77882H62.0117V2.77603H64.0494V6.77882H66.3813V8.40891H64.0494V15.0425C64.0494 16.3783 64.4795 16.9443 65.6568 16.9443C65.9393 16.9244 66.2195 16.8805 66.4945 16.813Z" fill="white"/>
<path d="M76.3427 15.0017H78.4256C78.0407 17.062 76.2521 18.8506 73.241 18.8506C69.7771 18.8506 67.7168 16.3375 67.7168 12.4887C67.7168 9.02474 69.7544 6.44376 73.1731 6.44376C75.8446 6.44376 77.7011 8.02857 78.3124 10.5416C78.4887 11.3672 78.5647 12.2109 78.5388 13.0547H69.7544C69.845 15.93 71.3392 17.2658 73.241 17.2658C74.939 17.2658 76.0484 16.3149 76.3427 15.0017ZM69.7771 11.5152H76.5465C76.3427 9.2285 74.9843 8.02857 73.1957 8.02857C71.2939 8.00593 69.9582 9.25114 69.7771 11.5152Z" fill="white"/>
<path d="M88.8403 15.0017H90.9232C90.5383 17.062 88.7497 18.8506 85.7386 18.8506C82.2746 18.8506 80.2144 16.3375 80.2144 12.4887C80.2144 9.02474 82.252 6.44376 85.6706 6.44376C88.3422 6.44376 90.1987 8.02857 90.81 10.5416C90.9862 11.3672 91.0622 12.2109 91.0364 13.0547H82.252C82.3425 15.93 83.8368 17.2658 85.7386 17.2658C87.4366 17.2658 88.5459 16.3149 88.8403 15.0017ZM82.2746 11.5152H89.044C88.8403 9.2285 87.4819 8.02857 85.6933 8.02857C83.7915 8.00593 82.4784 9.25114 82.2746 11.5152Z" fill="white"/>
<path d="M103.172 11.334V18.511H101.134V11.4925C101.134 9.04736 100.115 8.1644 98.4173 8.1644C96.7193 8.1644 95.3609 9.40961 95.3609 11.7642V18.511H93.3232V6.76071H95.2929V8.30024H95.3382C95.7328 7.72598 96.2646 7.25947 96.8854 6.94315C97.5062 6.62682 98.1962 6.47071 98.8927 6.48902C101.587 6.48902 103.172 8.11912 103.172 11.334Z" fill="white"/>
<path d="M115.873 6.94186C115.873 9.68132 114.084 10.9492 111.594 12.3981C108.469 14.2094 107.835 15.2282 107.813 16.6771H116.235V18.511H105.458C105.439 18.3608 105.432 18.2095 105.436 18.0582C105.436 15.0923 106.183 13.3943 110.031 11.1529C112.386 9.77188 113.631 8.91155 113.631 6.98714C113.631 5.49288 112.567 4.45144 110.847 4.45144C108.854 4.45144 107.926 5.58345 107.813 7.50786H105.639C105.752 4.40616 107.767 2.59494 110.869 2.59494C113.88 2.59494 115.873 4.31559 115.873 6.94186Z" fill="white"/>
<path d="M128.008 6.8513C128.008 8.7078 127.125 9.81717 125.291 10.4964V10.5417C127.306 11.2209 128.257 12.4208 128.257 14.4358C128.257 17.062 126.083 18.8506 122.914 18.8506C119.472 18.8506 117.525 16.9715 117.525 13.8245H119.676C119.676 15.9074 120.808 17.0167 122.914 17.0167C124.816 17.0167 126.083 15.93 126.083 14.3452C126.083 12.5113 124.793 11.5152 122.393 11.5152H121.759V9.72208H122.393C124.544 9.72208 125.857 8.65799 125.857 7.00525C125.857 5.44308 124.657 4.37899 122.801 4.37899C120.899 4.37899 119.812 5.3978 119.812 7.4807H117.661C117.661 4.37899 119.676 2.54514 122.891 2.54514C126.038 2.59494 128.008 4.27032 128.008 6.8513Z" fill="white"/>
<path d="M48.5411 5.33439C49.2288 5.33439 49.7863 4.77689 49.7863 4.08917C49.7863 3.40146 49.2288 2.84396 48.5411 2.84396C47.8534 2.84396 47.2959 3.40146 47.2959 4.08917C47.2959 4.77689 47.8534 5.33439 48.5411 5.33439Z" fill="white"/>
</svg>
